<mxfile host="Electron" modified="2023-11-06T23:06:39.046Z" agent="Mozilla/5.0 (Windows NT 10.0; Win64; x64) AppleWebKit/537.36 (KHTML, like Gecko) draw.io/22.0.1 Chrome/114.0.5735.289 Electron/25.8.4 Safari/537.36" etag="TJiXg8o90QwVdg6v6V6b" version="22.0.1" type="device">
  <diagram name="Page-1" id="V5FEJibJbFLJuYnV9K3m">
    <mxGraphModel dx="2585" dy="1097" grid="1" gridSize="10" guides="1" tooltips="1" connect="1" arrows="1" fold="1" page="1" pageScale="1" pageWidth="1100" pageHeight="850" math="0" shadow="0">
      <root>
        <mxCell id="0" />
        <mxCell id="1" parent="0" />
        <mxCell id="VbprJ_woV_JCTa7fUl5T-44" value="" style="rounded=0;whiteSpace=wrap;html=1;fillColor=none;strokeColor=#10739e;dashed=1;dashPattern=8 8;" vertex="1" parent="1">
          <mxGeometry x="460" y="290" width="160" height="235" as="geometry" />
        </mxCell>
        <mxCell id="VbprJ_woV_JCTa7fUl5T-45" value="" style="rounded=0;whiteSpace=wrap;html=1;fillColor=none;strokeColor=#10739e;dashed=1;dashPattern=8 8;" vertex="1" parent="1">
          <mxGeometry x="50" y="425" width="330" height="385" as="geometry" />
        </mxCell>
        <mxCell id="VbprJ_woV_JCTa7fUl5T-43" value="" style="rounded=0;whiteSpace=wrap;html=1;fillColor=none;strokeColor=#10739e;dashed=1;dashPattern=8 8;" vertex="1" parent="1">
          <mxGeometry x="120" y="175" width="260" height="215" as="geometry" />
        </mxCell>
        <mxCell id="VbprJ_woV_JCTa7fUl5T-10" style="edgeStyle=orthogonalEdgeStyle;rounded=0;orthogonalLoop=1;jettySize=auto;html=1;entryX=0.5;entryY=0;entryDx=0;entryDy=0;" edge="1" parent="1" source="VbprJ_woV_JCTa7fUl5T-1" target="VbprJ_woV_JCTa7fUl5T-5">
          <mxGeometry relative="1" as="geometry" />
        </mxCell>
        <mxCell id="VbprJ_woV_JCTa7fUl5T-1" value="clear_result" style="rounded=0;whiteSpace=wrap;html=1;" vertex="1" parent="1">
          <mxGeometry x="260" y="220" width="100" height="50" as="geometry" />
        </mxCell>
        <mxCell id="VbprJ_woV_JCTa7fUl5T-2" value="S1" style="text;html=1;align=center;verticalAlign=middle;resizable=0;points=[];autosize=1;strokeColor=none;fillColor=none;" vertex="1" parent="1">
          <mxGeometry x="260" y="190" width="40" height="30" as="geometry" />
        </mxCell>
        <mxCell id="VbprJ_woV_JCTa7fUl5T-21" style="edgeStyle=orthogonalEdgeStyle;rounded=0;orthogonalLoop=1;jettySize=auto;html=1;entryX=0.5;entryY=0;entryDx=0;entryDy=0;" edge="1" parent="1" source="VbprJ_woV_JCTa7fUl5T-4" target="VbprJ_woV_JCTa7fUl5T-19">
          <mxGeometry relative="1" as="geometry" />
        </mxCell>
        <mxCell id="VbprJ_woV_JCTa7fUl5T-4" value="right_shift" style="rounded=0;whiteSpace=wrap;html=1;" vertex="1" parent="1">
          <mxGeometry x="260" y="455" width="100" height="50" as="geometry" />
        </mxCell>
        <mxCell id="VbprJ_woV_JCTa7fUl5T-13" style="edgeStyle=orthogonalEdgeStyle;rounded=0;orthogonalLoop=1;jettySize=auto;html=1;entryX=0.5;entryY=1;entryDx=0;entryDy=0;" edge="1" parent="1" source="VbprJ_woV_JCTa7fUl5T-5" target="VbprJ_woV_JCTa7fUl5T-12">
          <mxGeometry relative="1" as="geometry">
            <mxPoint x="200" y="350" as="targetPoint" />
          </mxGeometry>
        </mxCell>
        <mxCell id="VbprJ_woV_JCTa7fUl5T-15" style="edgeStyle=orthogonalEdgeStyle;rounded=0;orthogonalLoop=1;jettySize=auto;html=1;entryX=0.5;entryY=0;entryDx=0;entryDy=0;" edge="1" parent="1" source="VbprJ_woV_JCTa7fUl5T-5" target="VbprJ_woV_JCTa7fUl5T-4">
          <mxGeometry relative="1" as="geometry" />
        </mxCell>
        <mxCell id="VbprJ_woV_JCTa7fUl5T-5" value="start" style="rhombus;whiteSpace=wrap;html=1;" vertex="1" parent="1">
          <mxGeometry x="270" y="320" width="80" height="50" as="geometry" />
        </mxCell>
        <mxCell id="VbprJ_woV_JCTa7fUl5T-8" value="" style="endArrow=classic;html=1;rounded=0;entryX=0.5;entryY=0;entryDx=0;entryDy=0;" edge="1" parent="1" target="VbprJ_woV_JCTa7fUl5T-1">
          <mxGeometry width="50" height="50" relative="1" as="geometry">
            <mxPoint x="310" y="130" as="sourcePoint" />
            <mxPoint x="360" y="90" as="targetPoint" />
          </mxGeometry>
        </mxCell>
        <mxCell id="VbprJ_woV_JCTa7fUl5T-9" value="reset" style="text;html=1;align=center;verticalAlign=middle;resizable=0;points=[];autosize=1;strokeColor=none;fillColor=none;" vertex="1" parent="1">
          <mxGeometry x="285" y="98" width="50" height="30" as="geometry" />
        </mxCell>
        <mxCell id="VbprJ_woV_JCTa7fUl5T-14" style="edgeStyle=orthogonalEdgeStyle;rounded=0;orthogonalLoop=1;jettySize=auto;html=1;entryX=0.5;entryY=0;entryDx=0;entryDy=0;" edge="1" parent="1" source="VbprJ_woV_JCTa7fUl5T-12" target="VbprJ_woV_JCTa7fUl5T-1">
          <mxGeometry relative="1" as="geometry">
            <mxPoint x="260" y="160" as="targetPoint" />
            <Array as="points">
              <mxPoint x="170" y="160" />
              <mxPoint x="310" y="160" />
            </Array>
          </mxGeometry>
        </mxCell>
        <mxCell id="VbprJ_woV_JCTa7fUl5T-12" value="&lt;span style=&quot;font-weight: normal;&quot;&gt;load_a&lt;/span&gt;" style="rounded=1;whiteSpace=wrap;html=1;arcSize=50;strokeWidth=1;fillColor=none;whiteSpace=wrap;align=center;verticalAlign=middle;spacingLeft=0;fontStyle=1;fontSize=14;spacing=10;" vertex="1" parent="1">
          <mxGeometry x="140" y="230" width="60" height="30" as="geometry" />
        </mxCell>
        <mxCell id="VbprJ_woV_JCTa7fUl5T-16" value="1" style="text;html=1;align=center;verticalAlign=middle;resizable=0;points=[];autosize=1;strokeColor=none;fillColor=none;" vertex="1" parent="1">
          <mxGeometry x="285" y="360" width="30" height="30" as="geometry" />
        </mxCell>
        <mxCell id="VbprJ_woV_JCTa7fUl5T-17" value="0" style="text;html=1;align=center;verticalAlign=middle;resizable=0;points=[];autosize=1;strokeColor=none;fillColor=none;" vertex="1" parent="1">
          <mxGeometry x="255" y="310" width="30" height="30" as="geometry" />
        </mxCell>
        <mxCell id="VbprJ_woV_JCTa7fUl5T-18" value="S2" style="text;html=1;align=center;verticalAlign=middle;resizable=0;points=[];autosize=1;strokeColor=none;fillColor=none;" vertex="1" parent="1">
          <mxGeometry x="260" y="425" width="40" height="30" as="geometry" />
        </mxCell>
        <mxCell id="VbprJ_woV_JCTa7fUl5T-24" style="edgeStyle=orthogonalEdgeStyle;rounded=0;orthogonalLoop=1;jettySize=auto;html=1;entryX=0.5;entryY=0;entryDx=0;entryDy=0;" edge="1" parent="1" source="VbprJ_woV_JCTa7fUl5T-19" target="VbprJ_woV_JCTa7fUl5T-22">
          <mxGeometry relative="1" as="geometry" />
        </mxCell>
        <mxCell id="VbprJ_woV_JCTa7fUl5T-25" style="edgeStyle=orthogonalEdgeStyle;rounded=0;orthogonalLoop=1;jettySize=auto;html=1;entryX=0.5;entryY=0;entryDx=0;entryDy=0;exitX=0;exitY=0.5;exitDx=0;exitDy=0;" edge="1" parent="1" source="VbprJ_woV_JCTa7fUl5T-22" target="VbprJ_woV_JCTa7fUl5T-4">
          <mxGeometry relative="1" as="geometry">
            <mxPoint x="200" y="410" as="targetPoint" />
            <mxPoint x="250" y="650" as="sourcePoint" />
            <Array as="points">
              <mxPoint x="190" y="710" />
              <mxPoint x="190" y="410" />
              <mxPoint x="310" y="410" />
            </Array>
          </mxGeometry>
        </mxCell>
        <mxCell id="VbprJ_woV_JCTa7fUl5T-34" style="edgeStyle=orthogonalEdgeStyle;rounded=0;orthogonalLoop=1;jettySize=auto;html=1;entryX=0.5;entryY=1;entryDx=0;entryDy=0;" edge="1" parent="1" source="VbprJ_woV_JCTa7fUl5T-19" target="VbprJ_woV_JCTa7fUl5T-32">
          <mxGeometry relative="1" as="geometry" />
        </mxCell>
        <mxCell id="VbprJ_woV_JCTa7fUl5T-19" value="A == 0" style="rhombus;whiteSpace=wrap;html=1;" vertex="1" parent="1">
          <mxGeometry x="270" y="575" width="80" height="50" as="geometry" />
        </mxCell>
        <mxCell id="VbprJ_woV_JCTa7fUl5T-27" style="edgeStyle=orthogonalEdgeStyle;rounded=0;orthogonalLoop=1;jettySize=auto;html=1;entryX=0.5;entryY=1;entryDx=0;entryDy=0;" edge="1" parent="1" source="VbprJ_woV_JCTa7fUl5T-22" target="VbprJ_woV_JCTa7fUl5T-26">
          <mxGeometry relative="1" as="geometry">
            <Array as="points">
              <mxPoint x="310" y="780" />
              <mxPoint x="90" y="780" />
            </Array>
          </mxGeometry>
        </mxCell>
        <mxCell id="VbprJ_woV_JCTa7fUl5T-22" value="A[0] == 0" style="rhombus;whiteSpace=wrap;html=1;" vertex="1" parent="1">
          <mxGeometry x="270" y="685" width="80" height="50" as="geometry" />
        </mxCell>
        <mxCell id="VbprJ_woV_JCTa7fUl5T-28" style="edgeStyle=orthogonalEdgeStyle;rounded=0;orthogonalLoop=1;jettySize=auto;html=1;entryX=0.5;entryY=0;entryDx=0;entryDy=0;" edge="1" parent="1" source="VbprJ_woV_JCTa7fUl5T-26" target="VbprJ_woV_JCTa7fUl5T-4">
          <mxGeometry relative="1" as="geometry">
            <mxPoint x="160" y="410" as="targetPoint" />
            <Array as="points">
              <mxPoint x="90" y="410" />
              <mxPoint x="310" y="410" />
            </Array>
          </mxGeometry>
        </mxCell>
        <mxCell id="VbprJ_woV_JCTa7fUl5T-26" value="&lt;span style=&quot;font-weight: normal;&quot;&gt;incr&lt;/span&gt;" style="rounded=1;whiteSpace=wrap;html=1;arcSize=50;strokeWidth=1;fillColor=none;whiteSpace=wrap;align=center;verticalAlign=middle;spacingLeft=0;fontStyle=1;fontSize=14;spacing=10;" vertex="1" parent="1">
          <mxGeometry x="60" y="575" width="60" height="30" as="geometry" />
        </mxCell>
        <mxCell id="VbprJ_woV_JCTa7fUl5T-29" value="0" style="text;html=1;align=center;verticalAlign=middle;resizable=0;points=[];autosize=1;strokeColor=none;fillColor=none;" vertex="1" parent="1">
          <mxGeometry x="255" y="685" width="30" height="30" as="geometry" />
        </mxCell>
        <mxCell id="VbprJ_woV_JCTa7fUl5T-30" value="1" style="text;html=1;align=center;verticalAlign=middle;resizable=0;points=[];autosize=1;strokeColor=none;fillColor=none;" vertex="1" parent="1">
          <mxGeometry x="305" y="730" width="30" height="30" as="geometry" />
        </mxCell>
        <mxCell id="VbprJ_woV_JCTa7fUl5T-31" value="0" style="text;html=1;align=center;verticalAlign=middle;resizable=0;points=[];autosize=1;strokeColor=none;fillColor=none;" vertex="1" parent="1">
          <mxGeometry x="305" y="620" width="30" height="30" as="geometry" />
        </mxCell>
        <mxCell id="VbprJ_woV_JCTa7fUl5T-37" style="edgeStyle=orthogonalEdgeStyle;rounded=0;orthogonalLoop=1;jettySize=auto;html=1;entryX=0.5;entryY=1;entryDx=0;entryDy=0;" edge="1" parent="1" source="VbprJ_woV_JCTa7fUl5T-32" target="VbprJ_woV_JCTa7fUl5T-36">
          <mxGeometry relative="1" as="geometry" />
        </mxCell>
        <mxCell id="VbprJ_woV_JCTa7fUl5T-32" value="done" style="rounded=0;whiteSpace=wrap;html=1;" vertex="1" parent="1">
          <mxGeometry x="490" y="455" width="100" height="50" as="geometry" />
        </mxCell>
        <mxCell id="VbprJ_woV_JCTa7fUl5T-33" value="S3" style="text;html=1;align=center;verticalAlign=middle;resizable=0;points=[];autosize=1;strokeColor=none;fillColor=none;" vertex="1" parent="1">
          <mxGeometry x="490" y="425" width="40" height="30" as="geometry" />
        </mxCell>
        <mxCell id="VbprJ_woV_JCTa7fUl5T-35" value="1" style="text;html=1;align=center;verticalAlign=middle;resizable=0;points=[];autosize=1;strokeColor=none;fillColor=none;" vertex="1" parent="1">
          <mxGeometry x="335" y="575" width="30" height="30" as="geometry" />
        </mxCell>
        <mxCell id="VbprJ_woV_JCTa7fUl5T-38" style="edgeStyle=orthogonalEdgeStyle;rounded=0;orthogonalLoop=1;jettySize=auto;html=1;" edge="1" parent="1" source="VbprJ_woV_JCTa7fUl5T-36">
          <mxGeometry relative="1" as="geometry">
            <mxPoint x="540" y="550" as="targetPoint" />
            <Array as="points">
              <mxPoint x="690" y="355" />
              <mxPoint x="690" y="550" />
            </Array>
          </mxGeometry>
        </mxCell>
        <mxCell id="VbprJ_woV_JCTa7fUl5T-39" style="edgeStyle=orthogonalEdgeStyle;rounded=0;orthogonalLoop=1;jettySize=auto;html=1;entryX=0.5;entryY=0;entryDx=0;entryDy=0;" edge="1" parent="1" source="VbprJ_woV_JCTa7fUl5T-36" target="VbprJ_woV_JCTa7fUl5T-1">
          <mxGeometry relative="1" as="geometry">
            <mxPoint x="310" y="160" as="targetPoint" />
            <Array as="points">
              <mxPoint x="540" y="160" />
              <mxPoint x="310" y="160" />
            </Array>
          </mxGeometry>
        </mxCell>
        <mxCell id="VbprJ_woV_JCTa7fUl5T-36" value="start" style="rhombus;whiteSpace=wrap;html=1;" vertex="1" parent="1">
          <mxGeometry x="500" y="330" width="80" height="50" as="geometry" />
        </mxCell>
        <mxCell id="VbprJ_woV_JCTa7fUl5T-40" value="1" style="text;html=1;align=center;verticalAlign=middle;resizable=0;points=[];autosize=1;strokeColor=none;fillColor=none;" vertex="1" parent="1">
          <mxGeometry x="560" y="360" width="30" height="30" as="geometry" />
        </mxCell>
        <mxCell id="VbprJ_woV_JCTa7fUl5T-42" value="0" style="text;html=1;align=center;verticalAlign=middle;resizable=0;points=[];autosize=1;strokeColor=none;fillColor=none;" vertex="1" parent="1">
          <mxGeometry x="535" y="310" width="30" height="30" as="geometry" />
        </mxCell>
        <mxCell id="VbprJ_woV_JCTa7fUl5T-46" value="&lt;font color=&quot;#000000&quot;&gt;A &amp;lt;= A_in&lt;/font&gt;" style="rounded=1;whiteSpace=wrap;html=1;fillColor=#f8cecc;strokeColor=#b85450;" vertex="1" parent="1">
          <mxGeometry x="-80" y="180" width="100" height="50" as="geometry" />
        </mxCell>
        <mxCell id="VbprJ_woV_JCTa7fUl5T-49" value="" style="endArrow=none;dashed=1;html=1;rounded=0;dashPattern=12 12;fillColor=#fad9d5;strokeColor=#ae4132;entryX=0;entryY=0.25;entryDx=0;entryDy=0;exitX=1;exitY=0.5;exitDx=0;exitDy=0;" edge="1" parent="1" source="VbprJ_woV_JCTa7fUl5T-46" target="VbprJ_woV_JCTa7fUl5T-12">
          <mxGeometry width="50" height="50" relative="1" as="geometry">
            <mxPoint x="-130" y="540" as="sourcePoint" />
            <mxPoint x="-130" y="380" as="targetPoint" />
          </mxGeometry>
        </mxCell>
        <mxCell id="VbprJ_woV_JCTa7fUl5T-50" value="&lt;font color=&quot;#000000&quot;&gt;count &amp;lt;= count + 1&#39;b1&lt;/font&gt;" style="rounded=1;whiteSpace=wrap;html=1;fillColor=#f8cecc;strokeColor=#b85450;" vertex="1" parent="1">
          <mxGeometry x="-170" y="510" width="130" height="60" as="geometry" />
        </mxCell>
        <mxCell id="VbprJ_woV_JCTa7fUl5T-51" value="" style="endArrow=none;dashed=1;html=1;rounded=0;dashPattern=12 12;fillColor=#fad9d5;strokeColor=#ae4132;exitX=1;exitY=0.5;exitDx=0;exitDy=0;entryX=0;entryY=0.25;entryDx=0;entryDy=0;" edge="1" parent="1" source="VbprJ_woV_JCTa7fUl5T-50" target="VbprJ_woV_JCTa7fUl5T-26">
          <mxGeometry width="50" height="50" relative="1" as="geometry">
            <mxPoint x="30" y="215" as="sourcePoint" />
            <mxPoint x="-20" y="600" as="targetPoint" />
          </mxGeometry>
        </mxCell>
        <mxCell id="VbprJ_woV_JCTa7fUl5T-52" value="&lt;font color=&quot;#000000&quot;&gt;count &amp;lt;= 0&lt;br&gt;result &amp;lt;= 0&lt;br&gt;&lt;/font&gt;" style="rounded=1;whiteSpace=wrap;html=1;fillColor=#f8cecc;strokeColor=#b85450;" vertex="1" parent="1">
          <mxGeometry x="470" y="88" width="100" height="50" as="geometry" />
        </mxCell>
        <mxCell id="VbprJ_woV_JCTa7fUl5T-53" value="" style="endArrow=none;dashed=1;html=1;rounded=0;dashPattern=12 12;fillColor=#fad9d5;strokeColor=#ae4132;entryX=0;entryY=1;entryDx=0;entryDy=0;exitX=1;exitY=0;exitDx=0;exitDy=0;" edge="1" parent="1" source="VbprJ_woV_JCTa7fUl5T-1" target="VbprJ_woV_JCTa7fUl5T-52">
          <mxGeometry width="50" height="50" relative="1" as="geometry">
            <mxPoint x="30" y="215" as="sourcePoint" />
            <mxPoint x="150" y="248" as="targetPoint" />
          </mxGeometry>
        </mxCell>
        <mxCell id="VbprJ_woV_JCTa7fUl5T-54" value="&lt;font color=&quot;#000000&quot;&gt;A &amp;lt;= A &amp;gt;&amp;gt; 1&lt;br&gt;&lt;/font&gt;" style="rounded=1;whiteSpace=wrap;html=1;fillColor=#f8cecc;strokeColor=#b85450;" vertex="1" parent="1">
          <mxGeometry x="420" y="635" width="100" height="50" as="geometry" />
        </mxCell>
        <mxCell id="VbprJ_woV_JCTa7fUl5T-55" value="" style="endArrow=none;dashed=1;html=1;rounded=0;dashPattern=12 12;fillColor=#fad9d5;strokeColor=#ae4132;entryX=1;entryY=1;entryDx=0;entryDy=0;exitX=0;exitY=0;exitDx=0;exitDy=0;" edge="1" parent="1" source="VbprJ_woV_JCTa7fUl5T-54" target="VbprJ_woV_JCTa7fUl5T-4">
          <mxGeometry width="50" height="50" relative="1" as="geometry">
            <mxPoint x="400" y="700" as="sourcePoint" />
            <mxPoint x="510" y="618" as="targetPoint" />
          </mxGeometry>
        </mxCell>
      </root>
    </mxGraphModel>
  </diagram>
</mxfile>
